{
  "accessors": [
    {
      "bufferView": 2,
      "componentType": 5126,
      "count": 3730,
      "max": [
        -0.9834985733032227,
        1.4041844606399536,
        0.3365154266357422
      ],
      "min": [
        -6.551606178283691,
        0.254406213760376,
        -5.361241340637207
      ],
      "type": "VEC3"
    },
    {
      "bufferView": 2,
      "byteOffset": 44760,
      "componentType": 5126,
      "count": 3730,
      "max": [
        0.9991923570632935,
        1.0,
        0.9984192252159119
      ],
      "min": [
        -0.9978446960449219,
        -1.0,
        -0.9974873661994934
      ],
      "type": "VEC3"
    },
    {
      "bufferView": 1,
      "componentType": 5126,
      "count": 3730,
      "max": [
        0.6834591627120972,
        0.9995005130767822
      ],
      "min": [
        0.000341564416885376,
        0.0004994869232177734
      ],
      "type": "VEC2"
    },
    {
      "bufferView": 1,
      "byteOffset": 29840,
      "componentType": 5126,
      "count": 3730,
      "max": [
        0.6834591627120972,
        0.9995005130767822
      ],
      "min": [
        0.000341564416885376,
        0.0004994869232177734
      ],
      "type": "VEC2"
    },
    {
      "bufferView": 0,
      "componentType": 5125,
      "count": 20088,
      "type": "SCALAR"
    },
    {
      "bufferView": 2,
      "byteOffset": 89520,
      "componentType": 5126,
      "count": 3730,
      "max": [
        -0.6428992748260498,
        0.7600246071815491,
        0.49245038628578186
      ],
      "min": [
        -5.498117446899414,
        0.060391783714294434,
        -6.203908443450928
      ],
      "type": "VEC3"
    },
    {
      "bufferView": 2,
      "byteOffset": 134280,
      "componentType": 5126,
      "count": 3730,
      "max": [
        0.9965158700942993,
        1.0,
        0.9992329478263855
      ],
      "min": [
        -0.9968039393424988,
        -1.0,
        -0.9983362555503845
      ],
      "type": "VEC3"
    },
    {
      "bufferView": 1,
      "byteOffset": 59680,
      "componentType": 5126,
      "count": 3730,
      "max": [
        0.6720608472824097,
        0.9407658576965332
      ],
      "min": [
        0.0067216502502560616,
        0.030367612838745117
      ],
      "type": "VEC2"
    },
    {
      "bufferView": 1,
      "byteOffset": 89520,
      "componentType": 5126,
      "count": 3730,
      "max": [
        0.6720608472824097,
        0.9407658576965332
      ],
      "min": [
        0.0067216502502560616,
        0.030367612838745117
      ],
      "type": "VEC2"
    },
    {
      "bufferView": 0,
      "byteOffset": 80352,
      "componentType": 5125,
      "count": 20088,
      "type": "SCALAR"
    }
  ],
  "asset": {
    "extras": {
      "author": "abdillaamy (https://sketchfab.com/abdillaamy)",
      "license": "CC-BY-4.0 (http://creativecommons.org/licenses/by/4.0/)",
      "source": "https://sketchfab.com/3d-models/latex-gloves-fallen-bd695b3f7ecf48dab7898c0a8b9a9840",
      "title": "Latex Gloves Fallen"
    },
    "generator": "Sketchfab-12.66.0",
    "version": "2.0"
  },
  "bufferViews": [
    {
      "buffer": 0,
      "byteLength": 160704,
      "name": "floatBufferViews",
      "target": 34963
    },
    {
      "buffer": 0,
      "byteLength": 119360,
      "byteOffset": 160704,
      "byteStride": 8,
      "name": "floatBufferViews",
      "target": 34962
    },
    {
      "buffer": 0,
      "byteLength": 179040,
      "byteOffset": 280064,
      "byteStride": 12,
      "name": "floatBufferViews",
      "target": 34962
    }
  ],
  "buffers": [
    {
      "byteLength": 459104,
      "uri": "scene.bin"
    }
  ],
  "images": [
    {
      "uri": "textures/Glove_2_texture_baseColor.jpeg"
    },
    {
      "uri": "textures/blinn4_baseColor.jpeg"
    }
  ],
  "materials": [
    {
      "doubleSided": true,
      "name": "Glove_2_texture",
      "pbrMetallicRoughness": {
        "baseColorTexture": {
          "index": 0
        },
        "metallicFactor": 0.0,
        "roughnessFactor": 0.6831439394000001
      }
    },
    {
      "doubleSided": true,
      "name": "blinn4",
      "pbrMetallicRoughness": {
        "baseColorTexture": {
          "index": 1
        },
        "metallicFactor": 0.0,
        "roughnessFactor": 0.3168560606
      }
    }
  ],
  "meshes": [
    {
      "name": "Gloves2_Glove_2_texture_0",
      "primitives": [
        {
          "attributes": {
            "NORMAL": 1,
            "POSITION": 0,
            "TEXCOORD_0": 2,
            "TEXCOORD_1": 3
          },
          "indices": 4,
          "material": 0,
          "mode": 4
        }
      ]
    },
    {
      "name": "Gloves2_blinn4_0",
      "primitives": [
        {
          "attributes": {
            "NORMAL": 6,
            "POSITION": 5,
            "TEXCOORD_0": 7,
            "TEXCOORD_1": 8
          },
          "indices": 9,
          "material": 1,
          "mode": 4
        }
      ]
    }
  ],
  "nodes": [
    {
      "children": [
        1
      ],
      "matrix": [
        0.4087250530719757,
        0.0,
        0.0,
        0.0,
        0.0,
        9.07551929323293e-17,
        -0.4087250530719757,
        0.0,
        0.0,
        0.4087250530719757,
        9.07551929323293e-17,
        0.0,
        0.0,
        0.0,
        0.0,
        1.0
      ],
      "name": "Sketchfab_model"
    },
    {
      "children": [
        2
      ],
      "matrix": [
        1.0,
        0.0,
        0.0,
        0.0,
        0.0,
        0.0,
        1.0,
        0.0,
        0.0,
        -1.0,
        0.0,
        0.0,
        0.0,
        0.0,
        0.0,
        1.0
      ],
      "name": "4052b092865a4a04ae4d1c6bda145094.fbx"
    },
    {
      "children": [
        3
      ],
      "name": "RootNode"
    },
    {
      "children": [
        4,
        5
      ],
      "name": "Gloves2"
    },
    {
      "mesh": 0,
      "name": "Gloves2_Glove_2_texture_0"
    },
    {
      "mesh": 1,
      "name": "Gloves2_blinn4_0"
    }
  ],
  "samplers": [
    {
      "magFilter": 9729,
      "minFilter": 9987,
      "wrapS": 10497,
      "wrapT": 10497
    }
  ],
  "scene": 0,
  "scenes": [
    {
      "name": "Sketchfab_Scene",
      "nodes": [
        0
      ]
    }
  ],
  "textures": [
    {
      "sampler": 0,
      "source": 0
    },
    {
      "sampler": 0,
      "source": 1
    }
  ]
}
