{
  "accessors": [
    {
      "bufferView": 2,
      "componentType": 5126,
      "count": 2363,
      "max": [
        0.22760500013828278,
        0.18550099432468414,
        -0.9277520179748535
      ],
      "min": [
        -0.2262279987335205,
        -0.12206099927425385,
        -1.5329577922821045
      ],
      "type": "VEC3"
    },
    {
      "bufferView": 2,
      "byteOffset": 28356,
      "componentType": 5126,
      "count": 2363,
      "max": [
        0.9999804496765137,
        0.9997239112854004,
        0.3297073245048523
      ],
      "min": [
        -0.9999988675117493,
        -0.9999262094497681,
        -0.9652066826820374
      ],
      "type": "VEC3"
    },
    {
      "bufferView": 3,
      "componentType": 5126,
      "count": 2363,
      "max": [
        0.9999985098838806,
        0.9992944002151489,
        0.5376659035682678,
        -1.0
      ],
      "min": [
        -0.9999758005142212,
        -0.9999138116836548,
        -0.523032546043396,
        -1.0
      ],
      "type": "VEC4"
    },
    {
      "bufferView": 1,
      "componentType": 5126,
      "count": 2363,
      "max": [
        0.9862518906593323,
        0.9324491620063782
      ],
      "min": [
        0.01381918229162693,
        0.0319097638130188
      ],
      "type": "VEC2"
    },
    {
      "bufferView": 1,
      "byteOffset": 18904,
      "componentType": 5126,
      "count": 2363,
      "max": [
        0.9862518906593323,
        0.9324491620063782
      ],
      "min": [
        0.01381918229162693,
        0.0319097638130188
      ],
      "type": "VEC2"
    },
    {
      "bufferView": 1,
      "byteOffset": 37808,
      "componentType": 5126,
      "count": 2363,
      "max": [
        0.9862518906593323,
        0.9324491620063782
      ],
      "min": [
        0.01381918229162693,
        0.0319097638130188
      ],
      "type": "VEC2"
    },
    {
      "bufferView": 1,
      "byteOffset": 56712,
      "componentType": 5126,
      "count": 2363,
      "max": [
        0.9862518906593323,
        0.9324491620063782
      ],
      "min": [
        0.01381918229162693,
        0.0319097638130188
      ],
      "type": "VEC2"
    },
    {
      "bufferView": 0,
      "componentType": 5125,
      "count": 13086,
      "type": "SCALAR"
    }
  ],
  "asset": {
    "extras": {
      "author": "Issa (https://sketchfab.com/holdmydrink)",
      "license": "CC-BY-4.0 (http://creativecommons.org/licenses/by/4.0/)",
      "source": "https://sketchfab.com/3d-models/high-visibilty-vest-1-5a75d007bcb64ad29a326669d67a30dc",
      "title": "High visibilty vest 1"
    },
    "generator": "Sketchfab-12.87.0",
    "version": "2.0"
  },
  "bufferViews": [
    {
      "buffer": 0,
      "byteLength": 52344,
      "name": "floatBufferViews",
      "target": 34963
    },
    {
      "buffer": 0,
      "byteLength": 75616,
      "byteOffset": 52344,
      "byteStride": 8,
      "name": "floatBufferViews",
      "target": 34962
    },
    {
      "buffer": 0,
      "byteLength": 56712,
      "byteOffset": 127960,
      "byteStride": 12,
      "name": "floatBufferViews",
      "target": 34962
    },
    {
      "buffer": 0,
      "byteLength": 37808,
      "byteOffset": 184672,
      "byteStride": 16,
      "name": "floatBufferViews",
      "target": 34962
    }
  ],
  "buffers": [
    {
      "byteLength": 222480,
      "uri": "scene.bin"
    }
  ],
  "images": [
    {
      "uri": "textures/high-vis-vest-color-1_baseColor.jpeg"
    },
    {
      "uri": "textures/high-vis-vest-color-1_metallicRoughness.png"
    },
    {
      "uri": "textures/high-vis-vest-color-1_normal.jpeg"
    }
  ],
  "materials": [
    {
      "doubleSided": true,
      "name": "high-vis-vest-color-1",
      "normalTexture": {
        "index": 2
      },
      "pbrMetallicRoughness": {
        "baseColorTexture": {
          "index": 0
        },
        "metallicFactor": 0.0,
        "metallicRoughnessTexture": {
          "index": 1
        }
      }
    }
  ],
  "meshes": [
    {
      "name": "Object_0",
      "primitives": [
        {
          "attributes": {
            "NORMAL": 1,
            "POSITION": 0,
            "TANGENT": 2,
            "TEXCOORD_0": 3,
            "TEXCOORD_1": 4,
            "TEXCOORD_2": 5,
            "TEXCOORD_3": 6
          },
          "indices": 7,
          "material": 0,
          "mode": 4
        }
      ]
    }
  ],
  "nodes": [
    {
      "children": [
        1
      ],
      "matrix": [
        1.0,
        0.0,
        0.0,
        0.0,
        0.0,
        2.220446049250313e-16,
        -1.0,
        0.0,
        0.0,
        1.0,
        2.220446049250313e-16,
        0.0,
        0.0,
        0.0,
        0.0,
        1.0
      ],
      "name": "Sketchfab_model"
    },
    {
      "children": [
        2
      ],
      "name": "root"
    },
    {
      "children": [
        3
      ],
      "matrix": [
        1.0,
        0.0,
        0.0,
        0.0,
        0.0,
        2.220446049250313e-16,
        1.0,
        0.0,
        0.0,
        -1.0,
        2.220446049250313e-16,
        0.0,
        0.0,
        0.0,
        0.0,
        1.0
      ],
      "name": "GLTF_SceneRootNode"
    },
    {
      "children": [
        4
      ],
      "matrix": [
        1.0,
        0.0,
        0.0,
        0.0,
        0.0,
        -1.685873969314855e-07,
        0.9999999999999858,
        0.0,
        0.0,
        -0.9999999999999858,
        -1.685873969314855e-07,
        0.0,
        0.0,
        0.0,
        0.0,
        1.0
      ],
      "name": "high-vis-vest-1-1_0"
    },
    {
      "mesh": 0,
      "name": "Object_4"
    }
  ],
  "samplers": [
    {
      "magFilter": 9729,
      "minFilter": 9987,
      "wrapS": 10497,
      "wrapT": 10497
    }
  ],
  "scene": 0,
  "scenes": [
    {
      "name": "Sketchfab_Scene",
      "nodes": [
        0
      ]
    }
  ],
  "textures": [
    {
      "sampler": 0,
      "source": 0
    },
    {
      "sampler": 0,
      "source": 1
    },
    {
      "sampler": 0,
      "source": 2
    }
  ]
}
