{
  "accessors": [
    {
      "bufferView": 2,
      "componentType": 5126,
      "count": 3924,
      "max": [
        0.6748459935188293,
        0.3222169876098633,
        0.5023170113563538
      ],
      "min": [
        -0.6748459935188293,
        -0.5554220080375671,
        -0.35162100195884705
      ],
      "type": "VEC3"
    },
    {
      "bufferView": 2,
      "byteOffset": 47088,
      "componentType": 5126,
      "count": 3924,
      "max": [
        1.0,
        1.0,
        0.9996880292892456
      ],
      "min": [
        -1.0,
        -1.0,
        -0.9996880292892456
      ],
      "type": "VEC3"
    },
    {
      "bufferView": 3,
      "componentType": 5126,
      "count": 3924,
      "max": [
        1.0,
        1.0,
        1.0,
        1.0
      ],
      "min": [
        -0.9949023723602295,
        -1.0,
        -1.0,
        -1.0
      ],
      "type": "VEC4"
    },
    {
      "bufferView": 1,
      "componentType": 5126,
      "count": 3924,
      "max": [
        0.9978950023651123,
        0.9980430006980896
      ],
      "min": [
        0.00012224899546708912,
        0.0036691399291157722
      ],
      "type": "VEC2"
    },
    {
      "bufferView": 0,
      "componentType": 5125,
      "count": 9108,
      "type": "SCALAR"
    },
    {
      "bufferView": 2,
      "byteOffset": 94176,
      "componentType": 5126,
      "count": 2053,
      "max": [
        0.4633930027484894,
        0.16010500490665436,
        0.4983609914779663
      ],
      "min": [
        -0.4633930027484894,
        -0.9064810276031494,
        0.25354498624801636
      ],
      "type": "VEC3"
    },
    {
      "bufferView": 2,
      "byteOffset": 118812,
      "componentType": 5126,
      "count": 2053,
      "max": [
        0.9997442364692688,
        1.0,
        0.9997443556785583
      ],
      "min": [
        -0.9997442364692688,
        -1.0,
        -0.9997447729110718
      ],
      "type": "VEC3"
    },
    {
      "bufferView": 3,
      "byteOffset": 62784,
      "componentType": 5126,
      "count": 2053,
      "max": [
        1.0,
        1.0,
        0.9997445344924927,
        1.0
      ],
      "min": [
        -1.0,
        -1.0,
        -0.9997446537017822,
        -1.0
      ],
      "type": "VEC4"
    },
    {
      "bufferView": 1,
      "byteOffset": 31392,
      "componentType": 5126,
      "count": 2053,
      "max": [
        0.9866930246353149,
        0.9993799924850464
      ],
      "min": [
        0.005867420230060816,
        0.0006672089803032577
      ],
      "type": "VEC2"
    },
    {
      "bufferView": 0,
      "byteOffset": 36432,
      "componentType": 5125,
      "count": 4014,
      "type": "SCALAR"
    },
    {
      "bufferView": 2,
      "byteOffset": 143448,
      "componentType": 5126,
      "count": 3080,
      "max": [
        0.5390830039978027,
        0.9733750224113464,
        0.4999629855155945
      ],
      "min": [
        -0.5390830039978027,
        -1.0,
        -0.4587860107421875
      ],
      "type": "VEC3"
    },
    {
      "bufferView": 2,
      "byteOffset": 180408,
      "componentType": 5126,
      "count": 3080,
      "max": [
        0.9999337792396545,
        1.0,
        1.0
      ],
      "min": [
        -0.9999337792396545,
        -1.0,
        -1.0
      ],
      "type": "VEC3"
    },
    {
      "bufferView": 3,
      "byteOffset": 95632,
      "componentType": 5126,
      "count": 3080,
      "max": [
        0.9999998807907104,
        1.0,
        0.9999373555183411,
        1.0
      ],
      "min": [
        -1.0,
        -1.0,
        -0.9999373555183411,
        -1.0
      ],
      "type": "VEC4"
    },
    {
      "bufferView": 1,
      "byteOffset": 47816,
      "componentType": 5126,
      "count": 3080,
      "max": [
        0.9979389905929565,
        0.8970249891281128
      ],
      "min": [
        0.0024467098992317915,
        0.004755320027470589
      ],
      "type": "VEC2"
    },
    {
      "bufferView": 0,
      "byteOffset": 52488,
      "componentType": 5125,
      "count": 6432,
      "type": "SCALAR"
    },
    {
      "bufferView": 2,
      "byteOffset": 217368,
      "componentType": 5126,
      "count": 1693,
      "max": [
        0.4409250020980835,
        1.0,
        0.4227660000324249
      ],
      "min": [
        -0.4409250020980835,
        0.20021499693393707,
        -0.4480679929256439
      ],
      "type": "VEC3"
    },
    {
      "bufferView": 2,
      "byteOffset": 237684,
      "componentType": 5126,
      "count": 1693,
      "max": [
        1.0,
        0.9996141195297241,
        1.0
      ],
      "min": [
        -1.0,
        -1.0,
        -1.0
      ],
      "type": "VEC3"
    },
    {
      "bufferView": 3,
      "byteOffset": 144912,
      "componentType": 5126,
      "count": 1693,
      "max": [
        1.0,
        1.0,
        0.9996131062507629,
        1.0
      ],
      "min": [
        -1.0,
        -1.0,
        -0.9999894499778748,
        -1.0
      ],
      "type": "VEC4"
    },
    {
      "bufferView": 1,
      "byteOffset": 72456,
      "componentType": 5126,
      "count": 1693,
      "max": [
        0.9886869788169861,
        0.9970120191574097
      ],
      "min": [
        0.01913280040025711,
        0.0001509790017735213
      ],
      "type": "VEC2"
    },
    {
      "bufferView": 0,
      "byteOffset": 78216,
      "componentType": 5125,
      "count": 4212,
      "type": "SCALAR"
    },
    {
      "bufferView": 2,
      "byteOffset": 258000,
      "componentType": 5126,
      "count": 308,
      "max": [
        0.48073700070381165,
        -0.26890599727630615,
        0.49017900228500366
      ],
      "min": [
        -0.476967990398407,
        -0.5437059998512268,
        -0.3790369927883148
      ],
      "type": "VEC3"
    },
    {
      "bufferView": 2,
      "byteOffset": 261696,
      "componentType": 5126,
      "count": 308,
      "max": [
        0.9916359782218933,
        0.9983811378479004,
        0.9962074756622314
      ],
      "min": [
        -0.9917807579040527,
        -0.9983951449394226,
        -0.9961422681808472
      ],
      "type": "VEC3"
    },
    {
      "bufferView": 3,
      "byteOffset": 172000,
      "componentType": 5126,
      "count": 308,
      "max": [
        0.9924920201301575,
        0.9999985694885254,
        0.9999867081642151,
        1.0
      ],
      "min": [
        -0.9986069798469543,
        -0.9999922513961792,
        -0.9999868869781494,
        -1.0
      ],
      "type": "VEC4"
    },
    {
      "bufferView": 1,
      "byteOffset": 86000,
      "componentType": 5126,
      "count": 308,
      "max": [
        0.993179976940155,
        1.0098899602890015
      ],
      "min": [
        0.011679300107061863,
        0.006375310011208057
      ],
      "type": "VEC2"
    },
    {
      "bufferView": 0,
      "byteOffset": 95064,
      "componentType": 5125,
      "count": 708,
      "type": "SCALAR"
    },
    {
      "bufferView": 2,
      "byteOffset": 265392,
      "componentType": 5126,
      "count": 110,
      "max": [
        0.07833179831504822,
        0.28079700469970703,
        -0.3296709954738617
      ],
      "min": [
        -0.07833190262317657,
        0.1851619929075241,
        -0.36320099234580994
      ],
      "type": "VEC3"
    },
    {
      "bufferView": 2,
      "byteOffset": 266712,
      "componentType": 5126,
      "count": 110,
      "max": [
        1.0,
        0.999995768070221,
        0.9978741407394409
      ],
      "min": [
        -1.0,
        -0.9999958872795105,
        -0.9978744983673096
      ],
      "type": "VEC3"
    },
    {
      "bufferView": 3,
      "byteOffset": 176928,
      "componentType": 5126,
      "count": 110,
      "max": [
        1.0,
        0.41569507122039795,
        0.46420612931251526,
        1.0
      ],
      "min": [
        -1.5617006283719093e-05,
        -0.9978742003440857,
        -0.9095040559768677,
        1.0
      ],
      "type": "VEC4"
    },
    {
      "bufferView": 1,
      "byteOffset": 88464,
      "componentType": 5126,
      "count": 110,
      "max": [
        0.8996379971504211,
        0.9852489829063416
      ],
      "min": [
        0.010392400436103344,
        0.012609199620783329
      ],
      "type": "VEC2"
    },
    {
      "bufferView": 0,
      "byteOffset": 97896,
      "componentType": 5125,
      "count": 288,
      "type": "SCALAR"
    },
    {
      "bufferView": 2,
      "byteOffset": 268032,
      "componentType": 5126,
      "count": 402,
      "max": [
        0.08953549712896347,
        0.5456349849700928,
        -0.42381200194358826
      ],
      "min": [
        -0.0884283035993576,
        0.29198598861694336,
        -0.5023170113563538
      ],
      "type": "VEC3"
    },
    {
      "bufferView": 2,
      "byteOffset": 272856,
      "componentType": 5126,
      "count": 402,
      "max": [
        1.0,
        0.975511372089386,
        0.9996104836463928
      ],
      "min": [
        -1.0,
        -0.9815477728843689,
        -0.9889844655990601
      ],
      "type": "VEC3"
    },
    {
      "bufferView": 3,
      "byteOffset": 178688,
      "componentType": 5126,
      "count": 402,
      "max": [
        1.0,
        0.9996104836463928,
        0.9851009845733643,
        1.0
      ],
      "min": [
        -1.0,
        -0.9889843463897705,
        -0.985100269317627,
        1.0
      ],
      "type": "VEC4"
    },
    {
      "bufferView": 1,
      "byteOffset": 89344,
      "componentType": 5126,
      "count": 402,
      "max": [
        0.9460009932518005,
        0.8317390084266663
      ],
      "min": [
        0.001831419998779893,
        0.0019921099301427603
      ],
      "type": "VEC2"
    },
    {
      "bufferView": 0,
      "byteOffset": 99048,
      "componentType": 5125,
      "count": 1260,
      "type": "SCALAR"
    }
  ],
  "asset": {
    "extras": {
      "author": "Purdue Envision Center (https://sketchfab.com/EnvisionCenter)",
      "license": "CC-BY-4.0 (http://creativecommons.org/licenses/by/4.0/)",
      "source": "https://sketchfab.com/3d-models/construction-harness-41638e5ec5264ed481d7cda15806ca0e",
      "title": "Construction Harness"
    },
    "generator": "Sketchfab-12.68.0",
    "version": "2.0"
  },
  "bufferViews": [
    {
      "buffer": 0,
      "byteLength": 104088,
      "name": "floatBufferViews",
      "target": 34963
    },
    {
      "buffer": 0,
      "byteLength": 92560,
      "byteOffset": 104088,
      "byteStride": 8,
      "name": "floatBufferViews",
      "target": 34962
    },
    {
      "buffer": 0,
      "byteLength": 277680,
      "byteOffset": 196648,
      "byteStride": 12,
      "name": "floatBufferViews",
      "target": 34962
    },
    {
      "buffer": 0,
      "byteLength": 185120,
      "byteOffset": 474328,
      "byteStride": 16,
      "name": "floatBufferViews",
      "target": 34962
    }
  ],
  "buffers": [
    {
      "byteLength": 659448,
      "uri": "scene.bin"
    }
  ],
  "images": [
    {
      "uri": "textures/MAT_DRing_baseColor.jpeg"
    },
    {
      "uri": "textures/MAT_DRing_metallicRoughness.png"
    },
    {
      "uri": "textures/MAT_DRing_normal.png"
    },
    {
      "uri": "textures/MAT_Label_baseColor.jpeg"
    },
    {
      "uri": "textures/MAT_Label_metallicRoughness.png"
    },
    {
      "uri": "textures/MAT_Label_normal.png"
    },
    {
      "uri": "textures/MAT_grommets_baseColor.png"
    },
    {
      "uri": "textures/MAT_grommets_metallicRoughness.png"
    },
    {
      "uri": "textures/MAT_grommets_normal.png"
    },
    {
      "uri": "textures/MAT_armPads_baseColor.png"
    },
    {
      "uri": "textures/MAT_armPads_metallicRoughness.png"
    },
    {
      "uri": "textures/MAT_armPads_normal.png"
    },
    {
      "uri": "textures/MAT_webbing_baseColor.png"
    },
    {
      "uri": "textures/MAT_webbing_metallicRoughness.png"
    },
    {
      "uri": "textures/MAT_webbing_normal.png"
    },
    {
      "uri": "textures/MAT_buckles_baseColor.jpeg"
    },
    {
      "uri": "textures/MAT_buckles_metallicRoughness.png"
    },
    {
      "uri": "textures/MAT_buckles_normal.png"
    },
    {
      "uri": "textures/MAT_extraParts_baseColor.jpeg"
    },
    {
      "uri": "textures/MAT_extraParts_metallicRoughness.png"
    },
    {
      "uri": "textures/MAT_extraParts_normal.png"
    }
  ],
  "materials": [
    {
      "doubleSided": true,
      "name": "MAT_DRing",
      "normalTexture": {
        "index": 2
      },
      "occlusionTexture": {
        "index": 1
      },
      "pbrMetallicRoughness": {
        "baseColorTexture": {
          "index": 0
        },
        "metallicRoughnessTexture": {
          "index": 1
        }
      }
    },
    {
      "doubleSided": true,
      "name": "MAT_Label",
      "normalTexture": {
        "index": 5
      },
      "occlusionTexture": {
        "index": 4
      },
      "pbrMetallicRoughness": {
        "baseColorTexture": {
          "index": 3
        },
        "metallicRoughnessTexture": {
          "index": 4
        }
      }
    },
    {
      "alphaMode": "BLEND",
      "doubleSided": true,
      "name": "MAT_grommets",
      "normalTexture": {
        "index": 8
      },
      "occlusionTexture": {
        "index": 7
      },
      "pbrMetallicRoughness": {
        "baseColorTexture": {
          "index": 6
        },
        "metallicRoughnessTexture": {
          "index": 7
        }
      }
    },
    {
      "alphaMode": "BLEND",
      "doubleSided": true,
      "name": "MAT_armPads",
      "normalTexture": {
        "index": 11
      },
      "occlusionTexture": {
        "index": 10
      },
      "pbrMetallicRoughness": {
        "baseColorTexture": {
          "index": 9
        },
        "metallicRoughnessTexture": {
          "index": 10
        }
      }
    },
    {
      "alphaMode": "BLEND",
      "doubleSided": true,
      "name": "MAT_webbing",
      "normalTexture": {
        "index": 14
      },
      "occlusionTexture": {
        "index": 13
      },
      "pbrMetallicRoughness": {
        "baseColorTexture": {
          "index": 12
        },
        "metallicRoughnessTexture": {
          "index": 13
        }
      }
    },
    {
      "doubleSided": true,
      "name": "MAT_buckles",
      "normalTexture": {
        "index": 17
      },
      "occlusionTexture": {
        "index": 16
      },
      "pbrMetallicRoughness": {
        "baseColorTexture": {
          "index": 15
        },
        "metallicRoughnessTexture": {
          "index": 16
        }
      }
    },
    {
      "doubleSided": true,
      "name": "MAT_extraParts",
      "normalTexture": {
        "index": 20
      },
      "occlusionTexture": {
        "index": 19
      },
      "pbrMetallicRoughness": {
        "baseColorTexture": {
          "index": 18
        },
        "metallicRoughnessTexture": {
          "index": 19
        }
      }
    }
  ],
  "meshes": [
    {
      "name": "defaultMaterial",
      "primitives": [
        {
          "attributes": {
            "NORMAL": 1,
            "POSITION": 0,
            "TANGENT": 2,
            "TEXCOORD_0": 3
          },
          "indices": 4,
          "material": 6,
          "mode": 4
        }
      ]
    },
    {
      "name": "defaultMaterial",
      "primitives": [
        {
          "attributes": {
            "NORMAL": 6,
            "POSITION": 5,
            "TANGENT": 7,
            "TEXCOORD_0": 8
          },
          "indices": 9,
          "material": 5,
          "mode": 4
        }
      ]
    },
    {
      "name": "defaultMaterial",
      "primitives": [
        {
          "attributes": {
            "NORMAL": 11,
            "POSITION": 10,
            "TANGENT": 12,
            "TEXCOORD_0": 13
          },
          "indices": 14,
          "material": 4,
          "mode": 4
        }
      ]
    },
    {
      "name": "defaultMaterial",
      "primitives": [
        {
          "attributes": {
            "NORMAL": 16,
            "POSITION": 15,
            "TANGENT": 17,
            "TEXCOORD_0": 18
          },
          "indices": 19,
          "material": 3,
          "mode": 4
        }
      ]
    },
    {
      "name": "defaultMaterial",
      "primitives": [
        {
          "attributes": {
            "NORMAL": 21,
            "POSITION": 20,
            "TANGENT": 22,
            "TEXCOORD_0": 23
          },
          "indices": 24,
          "material": 2,
          "mode": 4
        }
      ]
    },
    {
      "name": "defaultMaterial",
      "primitives": [
        {
          "attributes": {
            "NORMAL": 26,
            "POSITION": 25,
            "TANGENT": 27,
            "TEXCOORD_0": 28
          },
          "indices": 29,
          "material": 1,
          "mode": 4
        }
      ]
    },
    {
      "name": "defaultMaterial",
      "primitives": [
        {
          "attributes": {
            "NORMAL": 31,
            "POSITION": 30,
            "TANGENT": 32,
            "TEXCOORD_0": 33
          },
          "indices": 34,
          "material": 0,
          "mode": 4
        }
      ]
    }
  ],
  "nodes": [
    {
      "children": [
        1
      ],
      "matrix": [
        0.5,
        0.0,
        0.0,
        0.0,
        0.0,
        1.1102230246251565e-16,
        -0.5,
        0.0,
        0.0,
        0.5,
        1.1102230246251565e-16,
        0.0,
        0.0,
        0.0,
        0.0,
        1.0
      ],
      "name": "Sketchfab_model"
    },
    {
      "children": [
        2,
        4,
        6,
        8,
        10,
        12,
        14
      ],
      "matrix": [
        1.0,
        0.0,
        0.0,
        0.0,
        0.0,
        -4.371139006309477e-08,
        0.999999999999999,
        0.0,
        0.0,
        -0.999999999999999,
        -4.371139006309477e-08,
        0.0,
        0.0,
        0.0,
        0.0,
        1.0
      ],
      "name": "Collada visual scene group"
    },
    {
      "children": [
        3
      ],
      "name": "extraParts"
    },
    {
      "mesh": 0,
      "name": "defaultMaterial"
    },
    {
      "children": [
        5
      ],
      "name": "buckles"
    },
    {
      "mesh": 1,
      "name": "defaultMaterial"
    },
    {
      "children": [
        7
      ],
      "name": "webbing"
    },
    {
      "mesh": 2,
      "name": "defaultMaterial"
    },
    {
      "children": [
        9
      ],
      "name": "armPads"
    },
    {
      "mesh": 3,
      "name": "defaultMaterial"
    },
    {
      "children": [
        11
      ],
      "name": "grommetBelt"
    },
    {
      "mesh": 4,
      "name": "defaultMaterial"
    },
    {
      "children": [
        13
      ],
      "name": "label"
    },
    {
      "mesh": 5,
      "name": "defaultMaterial"
    },
    {
      "children": [
        15
      ],
      "name": "D_Ring"
    },
    {
      "mesh": 6,
      "name": "defaultMaterial"
    }
  ],
  "samplers": [
    {
      "magFilter": 9729,
      "minFilter": 9987,
      "wrapS": 10497,
      "wrapT": 10497
    }
  ],
  "scene": 0,
  "scenes": [
    {
      "name": "Sketchfab_Scene",
      "nodes": [
        0
      ]
    }
  ],
  "textures": [
    {
      "sampler": 0,
      "source": 0
    },
    {
      "sampler": 0,
      "source": 1
    },
    {
      "sampler": 0,
      "source": 2
    },
    {
      "sampler": 0,
      "source": 3
    },
    {
      "sampler": 0,
      "source": 4
    },
    {
      "sampler": 0,
      "source": 5
    },
    {
      "sampler": 0,
      "source": 6
    },
    {
      "sampler": 0,
      "source": 7
    },
    {
      "sampler": 0,
      "source": 8
    },
    {
      "sampler": 0,
      "source": 9
    },
    {
      "sampler": 0,
      "source": 10
    },
    {
      "sampler": 0,
      "source": 11
    },
    {
      "sampler": 0,
      "source": 12
    },
    {
      "sampler": 0,
      "source": 13
    },
    {
      "sampler": 0,
      "source": 14
    },
    {
      "sampler": 0,
      "source": 15
    },
    {
      "sampler": 0,
      "source": 16
    },
    {
      "sampler": 0,
      "source": 17
    },
    {
      "sampler": 0,
      "source": 18
    },
    {
      "sampler": 0,
      "source": 19
    },
    {
      "sampler": 0,
      "source": 20
    }
  ]
}
